<svg width="107" height="105" viewBox="0 0 107 105" fill="none" xmlns="http://www.w3.org/2000/svg">
<path fill-rule="evenodd" clip-rule="evenodd" d="M19.2584 73.033C19.2584 73.033 19.2583 73.0332 19.3735 73.0977C19.4363 73.2138 19.4364 73.2138 19.4364 73.2138L19.4428 73.2103L19.4626 73.1996L19.5405 73.158C19.6091 73.1215 19.7102 73.068 19.8402 73.0001C20.1003 72.8643 20.476 72.6707 20.938 72.4402C21.8623 71.979 23.1316 71.3702 24.5122 70.779C25.8934 70.1875 27.3834 69.6149 28.7497 69.2251C30.121 68.834 31.3491 68.6327 32.2148 68.768L32.2556 68.5072C31.3293 68.3624 30.0536 68.5786 28.6773 68.9712C27.296 69.3653 25.7946 69.9426 24.4083 70.5363C23.0216 71.1301 21.7474 71.7413 20.8201 72.2039C20.3564 72.4353 19.9793 72.6296 19.718 72.7661C19.712 72.7692 19.7061 72.7723 19.7002 72.7754C19.7399 72.7018 19.7845 72.6186 19.8336 72.5263C20.0485 72.1224 20.3489 71.5455 20.6907 70.8535C21.3741 69.47 22.2243 67.624 22.8892 65.7782C23.5525 63.9369 24.0379 62.0786 23.9776 60.677C23.9474 59.9752 23.7798 59.37 23.411 58.9408C23.0382 58.5068 22.4773 58.2729 21.7071 58.2804L21.7097 58.5444C22.4222 58.5375 22.9005 58.7517 23.2108 59.1129C23.5252 59.4788 23.6849 60.016 23.7138 60.6883C23.7717 62.0348 23.3027 63.8514 22.6408 65.6887C21.9807 67.5214 21.1351 69.3575 20.454 70.7366C20.1135 71.4258 19.8144 72.0003 19.6005 72.4023C19.4936 72.6034 19.4079 72.7612 19.349 72.8688C19.3196 72.9226 19.2969 72.9637 19.2815 72.9914L19.2641 73.0228L19.2584 73.033ZM19.3735 73.0977L19.4364 73.2138L19.0354 73.4307L19.2584 73.033L19.3735 73.0977Z" fill="white"/>
<path fill-rule="evenodd" clip-rule="evenodd" d="M53.0465 41.1013C41.7083 47.2123 31.5896 55.7989 25.4725 65.7005L25.6971 65.8393C31.7838 55.9869 41.8628 47.4289 53.1717 41.3337C64.4807 35.2385 77.0075 31.6126 87.9815 31.6126V31.3486C76.9543 31.3486 64.3846 34.9904 53.0465 41.1013Z" fill="white"/>
</svg>
