<svg width="776" height="325" viewBox="0 0 776 325" fill="none" xmlns="http://www.w3.org/2000/svg">
<circle cx="387.359" cy="134.908" r="79.2045" fill="url(#paint0_linear_117_228)"/>
<ellipse cx="397.919" cy="179.79" rx="238.494" ry="145.208" fill="url(#paint1_radial_117_228)"/>
<path d="M774.961 181.991C774.961 198.095 764.27 213.534 744.704 227.659C725.149 241.775 696.821 254.508 661.771 265.21C591.677 286.612 494.813 299.857 387.798 299.857C280.784 299.857 183.92 286.612 113.826 265.21C78.7759 254.508 50.4478 241.775 30.8933 227.659C11.3273 213.534 0.63623 198.095 0.63623 181.991C0.63623 165.886 11.3273 150.447 30.8933 136.322C50.4478 122.206 78.7759 109.473 113.826 98.7708C183.92 77.3687 280.784 64.1238 387.798 64.1238C494.813 64.1238 591.677 77.3687 661.771 98.7708C696.821 109.473 725.149 122.206 744.704 136.322C764.27 150.447 774.961 165.886 774.961 181.991Z" stroke="url(#paint2_linear_117_228)"/>
<path d="M727.438 181.991C727.438 198.126 718.151 213.568 701.199 227.68C684.25 241.789 659.695 254.518 629.307 265.217C568.537 286.614 484.551 299.857 391.759 299.857C298.966 299.857 214.98 286.614 154.21 265.217C123.823 254.518 99.267 241.789 82.3179 227.68C65.3659 213.568 56.0793 198.126 56.0793 181.991C56.0793 165.855 65.3659 150.413 82.3179 136.301C99.267 122.192 123.823 109.463 154.21 98.7642C214.98 77.3673 298.966 64.1238 391.759 64.1238C484.551 64.1238 568.537 77.3673 629.307 98.7642C659.695 109.463 684.25 122.192 701.199 136.301C718.151 150.413 727.438 165.855 727.438 181.991Z" stroke="url(#paint3_linear_117_228)"/>
<path d="M706.317 181.991C706.317 198.146 697.86 213.591 682.447 227.695C667.033 241.8 644.702 254.525 617.064 265.222C561.793 286.615 485.403 299.857 400.999 299.857C316.596 299.857 240.205 286.615 184.934 265.222C157.297 254.525 134.965 241.8 119.552 227.695C104.139 213.591 95.6816 198.146 95.6816 181.991C95.6816 165.836 104.139 150.39 119.552 136.286C134.965 122.181 157.297 109.456 184.934 98.7589C240.205 77.3662 316.596 64.1238 400.999 64.1238C485.403 64.1238 561.793 77.3662 617.064 98.7589C644.702 109.456 667.033 122.181 682.447 136.286C697.86 150.39 706.317 165.836 706.317 181.991Z" stroke="url(#paint4_linear_117_228)"/>
<path d="M525.907 121.267C525.907 187.772 465.898 241.774 391.759 241.774C317.619 241.774 257.611 187.772 257.611 121.267C257.611 54.7618 317.619 0.760132 391.759 0.760132C465.898 0.760132 525.907 54.7618 525.907 121.267Z" stroke="url(#paint5_linear_117_228)"/>
<path d="M520.626 152.509C520.626 172.173 506.283 190.08 482.863 203.1C459.46 216.11 427.095 224.173 391.319 224.173C355.542 224.173 323.177 216.11 299.774 203.1C276.354 190.08 262.011 172.173 262.011 152.509C262.011 132.845 276.354 114.938 299.774 101.918C323.177 88.9076 355.542 80.8447 391.319 80.8447C427.095 80.8447 459.46 88.9076 482.863 101.918C506.283 114.938 520.626 132.845 520.626 152.509Z" stroke="url(#paint6_linear_117_228)"/>
<defs>
<linearGradient id="paint0_linear_117_228" x1="387.359" y1="55.7033" x2="387.359" y2="214.112" gradientUnits="userSpaceOnUse">
<stop stop-color="#801053" stop-opacity="0.6"/>
<stop offset="1" stop-color="#8A40AD" stop-opacity="0.36"/>
</linearGradient>
<radialGradient id="paint1_radial_117_228" cx="0" cy="0" r="1" gradientUnits="userSpaceOnUse" gradientTransform="translate(397.919 179.79) rotate(90) scale(145.208 238.494)">
<stop stop-color="#AC3C9A"/>
<stop offset="1" stop-color="#580F85" stop-opacity="0"/>
</radialGradient>
<linearGradient id="paint2_linear_117_228" x1="387.798" y1="63.6238" x2="387.798" y2="300.357" gradientUnits="userSpaceOnUse">
<stop stop-opacity="0"/>
<stop offset="0.479167" stop-color="#763CAC"/>
</linearGradient>
<linearGradient id="paint3_linear_117_228" x1="391.759" y1="63.6238" x2="391.759" y2="300.357" gradientUnits="userSpaceOnUse">
<stop stop-opacity="0"/>
<stop offset="0.479167" stop-color="#763CAC"/>
</linearGradient>
<linearGradient id="paint4_linear_117_228" x1="400.999" y1="63.6238" x2="400.999" y2="300.357" gradientUnits="userSpaceOnUse">
<stop stop-opacity="0"/>
<stop offset="0.479167" stop-color="#763CAC"/>
</linearGradient>
<linearGradient id="paint5_linear_117_228" x1="391.759" y1="0.260132" x2="391.759" y2="242.274" gradientUnits="userSpaceOnUse">
<stop offset="0.197917" stop-opacity="0"/>
<stop offset="1" stop-color="#763CAC"/>
</linearGradient>
<linearGradient id="paint6_linear_117_228" x1="391.319" y1="80.3447" x2="391.319" y2="224.673" gradientUnits="userSpaceOnUse">
<stop offset="0.197917" stop-opacity="0"/>
<stop offset="1" stop-color="#763CAC"/>
</linearGradient>
</defs>
</svg>
