<svg width="662" height="145" viewBox="0 0 662 145" fill="none" xmlns="http://www.w3.org/2000/svg">
<path d="M200.304 17.0175C200.304 15.9547 199.286 14.9474 197.723 14.3231C198.084 12.2435 197.924 10.5885 197.218 10.0584C197.047 9.9332 196.853 9.87019 196.657 9.8759V10.6045C196.772 10.6045 196.865 10.6346 196.943 10.6901C197.283 10.9454 197.431 11.916 197.316 13.1653C197.288 13.4728 197.243 13.7963 197.188 14.1265C196.665 13.9619 196.134 13.8428 195.599 13.7703C195.28 13.1956 194.932 12.6494 194.557 12.1352C195.373 11.1446 196.139 10.6018 196.66 10.6018V9.87256C195.972 9.87256 195.07 10.5136 194.159 11.6252C193.248 10.5209 192.347 9.88593 191.659 9.88593V10.6145C192.177 10.6145 192.946 11.1546 193.762 12.1386C193.411 12.6199 193.061 13.1653 192.728 13.7703C192.191 13.842 191.659 13.9622 191.136 14.1299C191.08 13.8169 191.037 13.5006 191.005 13.182C190.888 11.932 191.033 10.9615 191.371 10.7034C191.446 10.6446 191.544 10.6179 191.659 10.6179V9.88927C191.449 9.88927 191.258 9.94809 191.093 10.0718C190.39 10.6018 190.232 12.2529 190.595 14.3264C189.038 14.9547 188.024 15.9581 188.024 17.0175C188.024 18.0804 189.043 19.0877 190.605 19.7114C190.245 21.7916 190.405 23.4466 191.111 23.976C191.273 24.1004 191.464 24.1592 191.674 24.1592C192.362 24.1592 193.263 23.5182 194.175 22.4065C195.085 23.5115 195.986 24.1458 196.675 24.1458C196.873 24.1513 197.068 24.0881 197.24 23.9627C197.944 23.4333 198.102 21.7822 197.739 19.7087C199.291 19.0844 200.304 18.077 200.304 17.0175ZM197.045 14.8364C196.948 15.2735 196.835 15.7044 196.707 16.1278C196.498 15.5963 196.268 15.0789 196.019 14.5777C196.375 14.6466 196.718 14.7315 197.045 14.8364H197.045ZM195.899 18.319C195.711 18.7465 195.51 19.1633 195.296 19.5683C194.545 19.6548 193.789 19.6559 193.038 19.5717C192.607 18.7677 192.231 17.9164 191.912 17.0276C192.23 16.1366 192.605 15.2824 193.034 14.4741C193.784 14.3875 194.54 14.3861 195.291 14.4701C195.498 14.8591 195.701 15.2749 195.896 15.7134C196.087 16.1412 196.26 16.5757 196.417 17.0142C196.258 17.458 196.085 17.8933 195.899 18.319V18.319ZM196.707 17.8939C196.842 18.3317 196.958 18.7702 197.053 19.1953C196.725 19.3003 196.379 19.3885 196.022 19.4567C196.27 18.951 196.499 18.4294 196.707 17.8939V17.8939ZM194.169 21.3831C193.937 21.069 193.704 20.7194 193.474 20.3364C193.699 20.3497 193.929 20.3598 194.162 20.3598C194.397 20.3598 194.63 20.3531 194.858 20.3364C194.633 20.7194 194.4 21.069 194.169 21.3831ZM192.307 19.4567C191.962 19.3914 191.62 19.3053 191.281 19.1987C191.373 18.7769 191.488 18.3417 191.618 17.9072C191.721 18.1679 191.829 18.43 191.947 18.692C192.064 18.9534 192.184 19.2087 192.307 19.4567ZM194.157 12.6519C194.389 12.9661 194.622 13.3157 194.853 13.6987C194.627 13.6854 194.397 13.6753 194.164 13.6753C193.929 13.6753 193.696 13.682 193.468 13.6987C193.694 13.3157 193.926 12.9661 194.157 12.6519ZM192.304 14.5784C192.056 15.083 191.827 15.6035 191.619 16.1379C191.487 15.7117 191.372 15.2774 191.273 14.8364C191.601 14.7348 191.947 14.6466 192.304 14.5784ZM190.039 18.6719C189.153 18.1786 188.58 17.5309 188.58 17.0175C188.58 16.5042 189.153 15.8531 190.039 15.3631C190.254 15.2422 190.49 15.1339 190.733 15.0329C190.875 15.6733 191.063 16.3404 191.295 17.0242C191.076 17.6674 190.891 18.3294 190.74 19.0055C190.503 18.9093 190.269 18.798 190.039 18.6719V18.6719ZM191.386 23.3444C191.046 23.0904 190.898 22.1184 191.013 20.8698C191.041 20.5623 191.086 20.2381 191.141 19.9079C191.631 20.065 192.167 20.186 192.73 20.2648C193.049 20.8395 193.397 21.3857 193.771 21.8999C192.955 22.8905 192.189 23.4333 191.668 23.4333C191.57 23.4347 191.473 23.4044 191.386 23.345V23.3444ZM197.323 20.8531C197.441 22.1024 197.296 23.0736 196.957 23.3317C196.883 23.3905 196.785 23.4166 196.67 23.4166C196.152 23.4166 195.383 22.8771 194.567 21.8925C194.94 21.3805 195.285 20.8356 195.601 20.2615C196.137 20.1897 196.669 20.0696 197.193 19.9019C197.251 20.2321 197.295 20.5489 197.323 20.8531V20.8531ZM198.287 18.6719C198.072 18.7929 197.837 18.9012 197.593 19.0022C197.44 18.3226 197.252 17.6573 197.031 17.0109C197.261 16.3311 197.446 15.6673 197.586 15.0296C197.824 15.1261 198.059 15.2374 198.289 15.3631C199.176 15.8565 199.749 16.5042 199.749 17.0175C199.746 17.5309 199.173 18.182 198.287 18.6719V18.6719Z" fill="url(#paint0_linear_130_21)"/>
<path d="M194.162 18.5117C194.465 18.5117 194.756 18.3543 194.971 18.074C195.185 17.7937 195.306 17.4135 195.306 17.0171C195.306 16.6207 195.185 16.2405 194.971 15.9602C194.756 15.6799 194.465 15.5225 194.162 15.5225C193.858 15.5225 193.567 15.6799 193.353 15.9602C193.138 16.2405 193.018 16.6207 193.018 17.0171C193.018 17.4135 193.138 17.7937 193.353 18.074C193.567 18.3543 193.858 18.5117 194.162 18.5117V18.5117Z" fill="url(#paint1_linear_130_21)"/>
<path d="M575.249 15.5233H567.147C566.537 15.5233 566.042 16.0091 566.042 16.6078V24.5606C566.042 25.1593 566.537 25.6451 567.147 25.6451H575.249C575.859 25.6451 576.354 25.1593 576.354 24.5606V16.6078C576.354 16.0091 575.859 15.5233 575.249 15.5233ZM571.654 23.4174C571.654 24.4025 571.064 24.8521 570.206 24.8521C569.43 24.8521 568.981 24.4589 568.751 23.9822L569.541 23.5145C569.693 23.7789 569.831 24.0026 570.164 24.0026C570.482 24.0026 570.685 23.8806 570.685 23.4038V20.1707H571.654V23.4174V23.4174ZM573.946 24.8521C573.046 24.8521 572.464 24.4318 572.181 23.8806L572.97 23.4332C573.178 23.7653 573.449 24.0116 573.926 24.0116C574.326 24.0116 574.584 23.815 574.584 23.5417C574.584 23.2163 574.322 23.1011 573.877 22.909L573.636 22.8074C572.936 22.5159 572.473 22.1477 572.473 21.3727C572.473 20.6588 573.028 20.1165 573.891 20.1165C574.508 20.1165 574.95 20.3266 575.268 20.8779L574.513 21.3524C574.347 21.0609 574.167 20.9457 573.889 20.9457C573.606 20.9457 573.426 21.1219 573.426 21.3524C573.426 21.637 573.606 21.7523 574.022 21.9308L574.264 22.0324C575.088 22.3781 575.551 22.7328 575.551 23.5281C575.551 24.3821 574.865 24.8521 573.946 24.8521V24.8521Z" fill="url(#paint2_linear_130_21)"/>
<path d="M655.414 87.2959C655.242 87.2959 655.068 87.2401 654.917 87.1345L653.334 86.0016C653.098 85.8402 653.214 85.7843 653.291 85.7532C653.606 85.6198 653.67 85.5918 654.006 85.359C654.042 85.3342 654.088 85.3435 654.124 85.3714L655.34 86.2437C655.383 86.2747 655.445 86.2747 655.486 86.2437L660.223 82.9348C660.266 82.9037 660.294 82.8417 660.294 82.7796V76.1618C660.294 76.0966 660.266 76.0376 660.22 76.0035L655.486 72.6977C655.442 72.6667 655.383 72.6667 655.34 72.6977L650.608 76.0066C650.562 76.0376 650.534 76.0997 650.534 76.1649V82.7796C650.534 82.8417 650.562 82.9037 650.608 82.9317L651.906 83.8381C652.611 84.2633 653.042 83.7636 653.042 83.2576V76.7267C653.042 76.6336 653.103 76.5622 653.18 76.5622H653.78C653.855 76.5622 653.919 76.6336 653.919 76.7267V83.2607C653.919 84.3968 653.406 85.0486 652.516 85.0486C652.242 85.0486 652.026 85.0486 651.426 84.6886L650.185 83.8225C649.877 83.6084 649.688 83.2079 649.688 82.7765V76.1618C649.688 75.7334 649.877 75.3299 650.185 75.1157L654.917 71.8068C655.217 71.602 655.614 71.602 655.912 71.8068L660.648 75.1188C660.956 75.333 661.146 75.7334 661.146 76.1649V82.7796C661.146 83.2079 660.956 83.6084 660.648 83.8256L655.912 87.1345C655.76 87.2401 655.588 87.2959 655.414 87.2959ZM659.238 80.7744C659.238 79.5359 658.545 79.2068 657.091 78.974C655.619 78.7381 655.471 78.6171 655.471 78.2011C655.471 77.8566 655.596 77.3972 656.686 77.3972C657.658 77.3972 658.017 77.6517 658.166 78.4464C658.179 78.5209 658.235 78.5767 658.299 78.5767H658.915C658.953 78.5767 658.989 78.5581 659.015 78.524C659.04 78.4898 659.053 78.4433 659.051 78.3967C658.956 77.0278 658.204 76.3915 656.686 76.3915C655.335 76.3915 654.529 77.0806 654.529 78.2384C654.529 79.4924 655.332 79.8401 656.627 79.9953C658.179 80.1784 658.299 80.4547 658.299 80.824C658.299 81.4635 657.873 81.7366 656.876 81.7366C655.622 81.7366 655.347 81.3548 655.255 80.6006C655.245 80.5198 655.188 80.4609 655.119 80.4609H654.506C654.429 80.4609 654.37 80.5354 654.37 80.6254C654.37 81.5907 654.804 82.7423 656.878 82.7423C658.376 82.7392 659.238 82.0222 659.238 80.7744V80.7744Z" fill="url(#paint3_linear_130_21)"/>
<path fill-rule="evenodd" clip-rule="evenodd" d="M565.09 131.741C563.807 131.741 562.775 132.868 562.775 134.248C562.775 135.087 563.157 135.833 563.743 136.288C563.441 136.525 563.196 136.833 563.028 137.187C562.86 137.541 562.773 137.932 562.775 138.328C562.775 139.167 563.157 139.912 563.743 140.367C563.441 140.604 563.196 140.913 563.028 141.267C562.86 141.621 562.773 142.011 562.775 142.407C562.775 143.788 563.807 144.914 565.09 144.914C566.372 144.914 567.404 143.788 567.404 142.407V140.287C567.81 140.641 568.321 140.835 568.848 140.836C570.131 140.835 571.163 139.708 571.163 138.328C571.165 137.932 571.079 137.541 570.911 137.187C570.742 136.833 570.497 136.525 570.195 136.288C570.497 136.051 570.742 135.743 570.91 135.388C571.079 135.034 571.165 134.644 571.163 134.248C571.163 132.868 570.131 131.741 568.848 131.741H565.09V131.741ZM563.645 134.248C563.645 133.375 564.296 132.676 565.09 132.676H566.534V135.821H565.09C564.296 135.821 563.645 135.121 563.645 134.248V134.248ZM568.848 135.82H567.404V132.675H568.848C569.643 132.675 570.293 133.375 570.293 134.248C570.293 135.121 569.643 135.82 568.848 135.82ZM563.645 138.328C563.645 137.455 564.296 136.755 565.09 136.755H566.534V139.9H565.09C564.295 139.9 563.645 139.2 563.645 138.328H563.645ZM567.404 138.328C567.404 137.455 568.055 136.755 568.849 136.755C569.643 136.755 570.294 137.454 570.294 138.328C570.294 139.2 569.643 139.9 568.849 139.9C568.055 139.9 567.405 139.201 567.405 138.328H567.404ZM563.645 142.407C563.645 141.534 564.296 140.835 565.09 140.835H566.534V142.407C566.534 143.28 565.884 143.98 565.09 143.98C564.296 143.98 563.645 143.28 563.645 142.407Z" fill="url(#paint4_linear_130_21)"/>
<path d="M617.172 85.4326H610.249C609.299 85.4326 608.529 86.2391 608.529 87.234V94.2108C608.529 95.2057 609.299 96.0122 610.249 96.0122H617.172C618.122 96.0122 618.893 95.2057 618.893 94.2108V87.234C618.893 86.2391 618.122 85.4326 617.172 85.4326Z" fill="url(#paint5_linear_130_21)"/>
<path d="M613.977 88.2155L612.684 90.4502L614.067 92.8232C614.076 92.8398 614.079 92.8593 614.074 92.8778C614.072 92.8857 614.067 92.8876 614.06 92.8879L614.053 92.8878L614.043 92.8876C614.038 92.8876 614.032 92.8878 614.026 92.8889H613.028L613.008 92.8886C612.955 92.8871 612.916 92.879 612.892 92.8377C612.8 92.6495 612.707 92.4614 612.614 92.2736C612.531 92.1061 612.445 91.9398 612.358 91.7749L612.319 91.7022C612.214 91.5068 612.111 91.3102 612.009 91.1126H612.002C611.909 91.3082 611.813 91.5023 611.714 91.6949C611.614 91.8891 611.516 92.082 611.418 92.2736C611.321 92.4654 611.221 92.6559 611.12 92.845C611.103 92.8836 611.076 92.8917 611.038 92.893L611.022 92.8932H610.07L610.066 92.8934L610.052 92.8946C610.044 92.8951 610.04 92.8934 610.038 92.8814C610.036 92.8637 610.04 92.8456 610.049 92.8305L611.391 90.523L610.084 88.2083C610.07 88.1889 610.067 88.1732 610.077 88.161C610.082 88.1548 610.088 88.1499 610.095 88.1467C610.103 88.1435 610.111 88.1422 610.118 88.1427H611.099C611.12 88.1415 611.141 88.1453 611.161 88.1537C611.178 88.1636 611.192 88.1773 611.203 88.1937C611.286 88.3879 611.379 88.582 611.481 88.776C611.582 88.9689 611.685 89.1606 611.79 89.3511C611.894 89.5387 611.99 89.7305 612.079 89.9262H612.086C612.177 89.7306 612.271 89.5364 612.367 89.3438C612.462 89.1546 612.56 88.9641 612.659 88.7724C612.758 88.5832 612.854 88.3927 612.948 88.201C612.953 88.1831 612.963 88.1668 612.976 88.1537C612.993 88.1446 613.012 88.1408 613.031 88.1427H613.942C613.951 88.1406 613.959 88.1413 613.967 88.1448C613.975 88.1483 613.982 88.1544 613.986 88.1623C613.991 88.1701 613.992 88.1791 613.991 88.1881C613.99 88.1971 613.987 88.2055 613.981 88.212L613.977 88.2156L613.977 88.2155ZM616.02 92.9828L615.972 92.9833C615.652 92.9885 615.335 92.9188 615.044 92.7796C614.773 92.6482 614.546 92.4337 614.394 92.1644C614.24 91.8976 614.162 91.565 614.158 91.1669L614.158 91.1345C614.155 90.8004 614.237 90.4715 614.394 90.1809C614.552 89.8933 614.781 89.6563 615.058 89.4957L615.082 89.4821C615.383 89.3074 615.747 89.22 616.174 89.22L616.192 89.2203L616.214 89.221L616.238 89.2221L616.264 89.2237L616.309 89.227L616.359 89.2312L616.396 89.2346V87.8006C616.396 87.7667 616.41 87.7497 616.438 87.7497H617.314C617.32 87.7488 617.325 87.7494 617.331 87.7512C617.336 87.7531 617.341 87.7563 617.345 87.7606C617.349 87.7648 617.352 87.77 617.354 87.7757C617.356 87.7813 617.356 87.7874 617.356 87.7933V92.0953C617.356 92.1675 617.358 92.2454 617.364 92.3286L617.377 92.5174L617.384 92.6267C617.384 92.6418 617.381 92.6568 617.373 92.6698C617.366 92.6828 617.355 92.6932 617.342 92.6995C617.116 92.7982 616.88 92.8713 616.64 92.9178C616.435 92.9573 616.228 92.9791 616.02 92.9828V92.9828ZM616.396 92.0807V90.0935C616.359 90.0829 616.32 90.0756 616.282 90.0717C616.234 90.0667 616.187 90.0643 616.139 90.0644C615.97 90.0627 615.804 90.1026 615.652 90.1809C615.505 90.2576 615.379 90.3729 615.287 90.5157C615.196 90.6563 615.148 90.8398 615.145 91.0663L615.145 91.0908C615.141 91.2495 615.166 91.4074 615.218 91.5566C615.26 91.6769 615.326 91.7862 615.413 91.8769C615.495 91.9604 615.595 92.0227 615.704 92.0589C615.82 92.0981 615.941 92.1178 616.063 92.1172C616.127 92.1172 616.188 92.1147 616.243 92.1099C616.288 92.1064 616.332 92.0987 616.375 92.087L616.396 92.0807V92.0807Z" fill="black"/>
<path d="M530.461 24.3827C531.276 23.8927 532.089 23.3986 532.906 22.9137C533.682 22.4532 534.596 22.8778 534.772 23.7738C534.873 24.2921 534.652 24.8521 534.205 25.1248C532.74 26.0188 531.273 26.9093 529.798 27.7862C529.341 28.0576 528.871 28.0077 528.455 27.6751C528.033 27.3374 527.9 26.8717 527.999 26.3296C528.112 25.917 528.371 25.6411 528.724 25.4347C529.308 25.0935 529.882 24.7343 530.461 24.3827" fill="url(#paint6_linear_130_21)"/>
<path d="M531.058 24.0268C530.246 23.5329 529.431 23.0429 528.621 22.5441C527.852 22.0705 527.746 21.0302 528.399 20.4225C528.777 20.0711 529.351 19.9915 529.8 20.2604C531.272 21.142 532.742 22.0274 534.205 22.9261C534.658 23.2043 534.851 23.6557 534.784 24.1991C534.716 24.751 534.398 25.1046 533.9 25.2859C533.502 25.3896 533.144 25.2927 532.797 25.0757C532.223 24.7168 531.638 24.3755 531.058 24.0268" fill="url(#paint7_linear_130_21)"/>
<path d="M523.65 23.6774C523.129 23.9877 522.607 24.2974 522.085 24.6086C521.781 24.7907 521.479 24.979 521.173 25.158C520.556 25.5188 519.822 25.3073 519.472 24.6719C519.138 24.0655 519.33 23.2793 519.925 22.916C521.378 22.0276 522.836 21.1458 524.298 20.2737C524.747 20.0063 525.212 20.04 525.627 20.3597C526.065 20.6971 526.208 21.172 526.11 21.7286C526.049 21.8634 526.012 22.0213 525.921 22.1274C525.773 22.3 525.604 22.4653 525.416 22.5867C524.834 22.9622 524.24 23.3155 523.65 23.6774" fill="url(#paint8_linear_130_21)"/>
<path d="M523.052 24.025C523.57 24.3427 524.087 24.6612 524.605 24.978C524.908 25.1634 525.214 25.3426 525.515 25.5308C526.122 25.9103 526.314 26.681 525.964 27.316C525.629 27.9222 524.883 28.1412 524.285 27.7837C522.823 26.9099 521.365 26.0294 519.913 25.1392C519.467 24.8662 519.262 24.4273 519.319 23.8914C519.38 23.3256 519.701 22.9582 520.21 22.769C520.352 22.757 520.501 22.711 520.635 22.7408C520.852 22.7892 521.073 22.8596 521.267 22.9693C521.868 23.3089 522.458 23.6713 523.052 24.025" fill="url(#paint9_linear_130_21)"/>
<path fill-rule="evenodd" clip-rule="evenodd" d="M75.6251 64.2919C73.0936 64.2919 71.0417 66.9699 71.0417 70.2729C71.0417 73.576 73.0936 76.254 75.6251 76.254C78.1562 76.254 80.2084 73.576 80.2084 70.2729C80.2084 66.9699 78.1562 64.2919 75.6251 64.2919ZM75.6786 73.7708C74.2012 73.7708 73.0049 72.2058 73.0049 70.2729C73.0049 68.34 74.2012 66.775 75.6786 66.775C76.4004 66.775 77.0039 67.1224 77.4668 67.6866L76.7129 68.6725V68.6705C76.4321 68.3206 76.0762 68.1412 75.6786 68.1412C74.7963 68.1412 74.0794 69.1161 74.0794 70.2709C74.0794 71.4248 74.7963 72.4027 75.6786 72.4027C76.4791 72.4027 77.0238 71.8036 77.1361 70.9812H75.6786V69.617H78.1937C78.2273 69.8513 78.2452 70.0955 78.2452 70.3517C78.2452 72.3503 77.2228 73.7708 75.6786 73.7708V73.7708Z" fill="url(#paint10_linear_130_21)"/>
<path d="M2.44922 111.696H3.88995V112.338H3.05167V112.979H3.88995V113.621H2.44922V111.696ZM4.17776 111.696H5.61905V112.254H4.78077V112.366H5.61905V113.649H4.17776V113.063H5.01605V112.951H4.17776V111.696ZM5.90742 111.696H7.34759V112.254H6.50931V112.366H7.34759V113.649H5.90742V113.063H6.74571V112.951H5.90742V111.696Z" fill="url(#paint11_linear_130_21)"/>
<path fill-rule="evenodd" clip-rule="evenodd" d="M4.95173 125.616L1.12737 124.505L0 114.504H9.91338L8.78656 124.504L4.95173 125.616ZM2.22886 119.031L2.33405 120.257H6.39688L6.26085 121.848L4.95338 122.218H4.95228L3.64702 121.849L3.56331 120.871H2.38637L2.55049 122.797L4.95173 123.494L7.35683 122.797L7.64982 119.36L7.67846 119.031L7.88995 116.548H2.01792L2.12477 117.775H6.60561L6.49877 119.031H2.22886V119.031Z" fill="url(#paint12_linear_130_21)"/>
<path d="M121.63 1.23206H130.018V10.4584H121.63V1.23206ZM121.248 10.8897H130.399V0.800781H121.248V10.8897ZM127.242 4.39658C127.242 4.36221 127.253 4.34484 127.288 4.34484H127.886C127.917 4.34484 127.932 4.35778 127.932 4.39658V7.79836C127.932 7.83273 127.925 7.8501 127.886 7.8501H127.296C127.258 7.8501 127.246 7.82867 127.246 7.79393V4.39658H127.242H127.242ZM127.2 3.41799C127.2 3.30136 127.241 3.1895 127.314 3.10702C127.387 3.02455 127.486 2.97822 127.589 2.97822C127.692 2.97822 127.791 3.02455 127.864 3.10702C127.937 3.1895 127.978 3.30136 127.978 3.41799C127.982 3.47757 127.974 3.53737 127.955 3.59324C127.936 3.64911 127.907 3.69971 127.87 3.74154C127.832 3.78337 127.787 3.81543 127.737 3.8355C127.687 3.85557 127.634 3.86317 127.581 3.85776C127.53 3.86142 127.478 3.85248 127.43 3.83154C127.382 3.8106 127.338 3.77816 127.302 3.73643C127.266 3.6947 127.238 3.64465 127.221 3.5897C127.203 3.53475 127.196 3.47619 127.201 3.41799H127.2ZM125.484 5.81531C125.377 5.33489 125.125 4.29347 125.031 3.78903H125.023C124.943 4.29347 124.741 5.14715 124.581 5.81531H125.484ZM124.424 6.51378L124.123 7.80723C124.116 7.8416 124.104 7.85047 124.066 7.85047H123.506C123.468 7.85047 123.46 7.83753 123.468 7.7858L124.551 3.49892C124.577 3.38205 124.59 3.2618 124.589 3.14119C124.589 3.11089 124.6 3.09795 124.619 3.09795H125.42C125.447 3.09795 125.458 3.10645 125.466 3.14119L126.678 7.79319C126.686 7.82756 126.678 7.84936 126.648 7.84936H126.015C125.984 7.84936 125.965 7.84086 125.957 7.81241L125.645 6.51452H124.425L124.424 6.51378Z" fill="url(#paint13_linear_130_21)"/>
<path fill-rule="evenodd" clip-rule="evenodd" d="M41.179 27.2052C41.179 26.9785 41.2634 26.761 41.4136 26.6007C41.5638 26.4404 41.7676 26.3503 41.98 26.3503H49.9655C50.0708 26.3502 50.1751 26.3721 50.2724 26.415C50.3698 26.4579 50.4582 26.5209 50.5327 26.6003C50.6072 26.6797 50.6663 26.774 50.7065 26.8778C50.7468 26.9816 50.7675 27.0928 50.7675 27.2052V35.7269C50.7676 35.8392 50.747 35.9505 50.7067 36.0544C50.6665 36.1583 50.6075 36.2526 50.533 36.3321C50.4586 36.4116 50.3702 36.4746 50.2729 36.5176C50.1756 36.5606 50.0713 36.5827 49.966 36.5827H41.98C41.8748 36.5827 41.7706 36.5605 41.6734 36.5175C41.5762 36.4746 41.4878 36.4115 41.4134 36.3321C41.339 36.2527 41.28 36.1584 41.2398 36.0546C41.1996 35.9508 41.1789 35.8396 41.179 35.7273V27.2052ZM44.9743 30.2516H46.2726V30.9474C46.4601 30.5475 46.9395 30.1875 47.6599 30.1875C49.0411 30.1875 49.3684 30.9842 49.3684 32.446V35.1539H47.9707V32.779C47.9707 31.9465 47.7833 31.4767 47.3073 31.4767C46.647 31.4767 46.3725 31.9832 46.3725 32.779V35.1539H44.9743V30.2516ZM42.5771 35.0901H43.9753V30.1875H42.5771V35.0897V35.0901ZM44.1754 28.5884C44.178 28.7162 44.1567 28.8432 44.1127 28.9621C44.0687 29.0809 44.0029 29.1892 43.9192 29.2805C43.8355 29.3719 43.7355 29.4444 43.6251 29.494C43.5147 29.5435 43.3962 29.5691 43.2764 29.5691C43.1567 29.5691 43.0382 29.5435 42.9278 29.494C42.8174 29.4444 42.7174 29.3719 42.6337 29.2805C42.55 29.1892 42.4842 29.0809 42.4402 28.9621C42.3962 28.8432 42.3749 28.7162 42.3775 28.5884C42.3827 28.3377 42.4797 28.099 42.6477 27.9236C42.8157 27.7483 43.0414 27.65 43.2764 27.65C43.5115 27.65 43.7372 27.7483 43.9052 27.9236C44.0732 28.099 44.1702 28.3377 44.1754 28.5884V28.5884Z" fill="url(#paint14_linear_130_21)"/>
<path d="M85.9825 118.168L87.1099 119.809L92.8157 118.168M80.0538 130.943L83.1406 127.812L81.2833 125.744M85.5147 118.168L83.8651 119.71L86.64 119.817M79.1024 118.169L79.6937 119.429L82.9599 119.639M80.85 124.701L83.2628 120.033L76.2571 119.638M81.1308 124.996L83.4097 127.535L85.9232 124.98L86.7028 120.219L83.6402 120.056L81.1308 124.996Z" fill="url(#paint15_linear_130_21)"/>
<defs>
<linearGradient id="paint0_linear_130_21" x1="194.164" y1="9.87256" x2="194.164" y2="24.1592" gradientUnits="userSpaceOnUse">
<stop stop-color="#933B85" stop-opacity="0.53"/>
<stop offset="1" stop-color="#933B8A"/>
</linearGradient>
<linearGradient id="paint1_linear_130_21" x1="194.162" y1="15.5225" x2="194.162" y2="18.5117" gradientUnits="userSpaceOnUse">
<stop stop-color="#933B85" stop-opacity="0.53"/>
<stop offset="1" stop-color="#933B8A"/>
</linearGradient>
<linearGradient id="paint2_linear_130_21" x1="571.198" y1="15.5233" x2="571.198" y2="25.6451" gradientUnits="userSpaceOnUse">
<stop stop-color="#933B85" stop-opacity="0.53"/>
<stop offset="1" stop-color="#933B8A"/>
</linearGradient>
<linearGradient id="paint3_linear_130_21" x1="655.417" y1="71.6532" x2="655.417" y2="87.2959" gradientUnits="userSpaceOnUse">
<stop stop-color="#933B85" stop-opacity="0.53"/>
<stop offset="1" stop-color="#933B8A"/>
</linearGradient>
<linearGradient id="paint4_linear_130_21" x1="566.969" y1="131.741" x2="566.969" y2="144.914" gradientUnits="userSpaceOnUse">
<stop stop-color="#933B85" stop-opacity="0.53"/>
<stop offset="1" stop-color="#933B8A"/>
</linearGradient>
<linearGradient id="paint5_linear_130_21" x1="613.711" y1="85.4326" x2="613.711" y2="96.0122" gradientUnits="userSpaceOnUse">
<stop stop-color="#933B85" stop-opacity="0.53"/>
<stop offset="1" stop-color="#933B8A"/>
</linearGradient>
<linearGradient id="paint6_linear_130_21" x1="531.382" y1="22.726" x2="531.382" y2="27.9611" gradientUnits="userSpaceOnUse">
<stop stop-color="#933B85" stop-opacity="0.53"/>
<stop offset="1" stop-color="#933B8A"/>
</linearGradient>
<linearGradient id="paint7_linear_130_21" x1="531.384" y1="20.1001" x2="531.384" y2="25.3276" gradientUnits="userSpaceOnUse">
<stop stop-color="#933B85" stop-opacity="0.53"/>
<stop offset="1" stop-color="#933B8A"/>
</linearGradient>
<linearGradient id="paint8_linear_130_21" x1="522.724" y1="20.0942" x2="522.724" y2="25.3335" gradientUnits="userSpaceOnUse">
<stop stop-color="#933B85" stop-opacity="0.53"/>
<stop offset="1" stop-color="#933B8A"/>
</linearGradient>
<linearGradient id="paint9_linear_130_21" x1="522.724" y1="22.731" x2="522.724" y2="27.9561" gradientUnits="userSpaceOnUse">
<stop stop-color="#933B85" stop-opacity="0.53"/>
<stop offset="1" stop-color="#933B8A"/>
</linearGradient>
<linearGradient id="paint10_linear_130_21" x1="75.6251" y1="64.2919" x2="75.6251" y2="76.254" gradientUnits="userSpaceOnUse">
<stop stop-color="#933B85" stop-opacity="0.53"/>
<stop offset="1" stop-color="#933B8A"/>
</linearGradient>
<linearGradient id="paint11_linear_130_21" x1="4.89841" y1="111.696" x2="4.89841" y2="113.649" gradientUnits="userSpaceOnUse">
<stop stop-color="#933B85" stop-opacity="0.53"/>
<stop offset="1" stop-color="#933B8A"/>
</linearGradient>
<linearGradient id="paint12_linear_130_21" x1="4.95669" y1="114.504" x2="4.95669" y2="125.616" gradientUnits="userSpaceOnUse">
<stop stop-color="#933B85" stop-opacity="0.53"/>
<stop offset="1" stop-color="#933B8A"/>
</linearGradient>
<linearGradient id="paint13_linear_130_21" x1="125.823" y1="0.800781" x2="125.823" y2="10.8897" gradientUnits="userSpaceOnUse">
<stop stop-color="#933B85" stop-opacity="0.53"/>
<stop offset="1" stop-color="#933B8A"/>
</linearGradient>
<linearGradient id="paint14_linear_130_21" x1="45.9732" y1="26.3503" x2="45.9732" y2="36.5827" gradientUnits="userSpaceOnUse">
<stop stop-color="#933B85" stop-opacity="0.53"/>
<stop offset="1" stop-color="#933B8A"/>
</linearGradient>
<linearGradient id="paint15_linear_130_21" x1="84.5364" y1="118.168" x2="84.5364" y2="130.943" gradientUnits="userSpaceOnUse">
<stop stop-color="#933B85" stop-opacity="0.53"/>
<stop offset="1" stop-color="#933B8A"/>
</linearGradient>
</defs>
</svg>
