<svg width="8" height="15" viewBox="0 0 8 15" fill="none" xmlns="http://www.w3.org/2000/svg">
<path fill-rule="evenodd" clip-rule="evenodd" d="M2.16898 0.301025C1.04939 0.301025 0.148955 1.5257 0.148955 3.02598C0.148955 3.93807 0.482042 4.74816 0.994025 5.24269C0.730154 5.50044 0.51627 5.83521 0.369517 6.22016C0.222764 6.6051 0.147225 7.02952 0.148955 7.4594C0.148955 8.37209 0.482042 9.18158 0.994025 9.6761C0.730154 9.93386 0.51627 10.2686 0.369517 10.6536C0.222764 11.0385 0.147225 11.4629 0.148955 11.8928C0.148955 13.3931 1.04939 14.6178 2.16898 14.6178C3.28811 14.6178 4.189 13.3931 4.189 11.8928V9.58901C4.54283 9.97365 4.98883 10.1845 5.44952 10.1849C6.56911 10.1843 7.46954 8.95967 7.46954 7.4594C7.47138 7.0295 7.39589 6.60503 7.24913 6.22006C7.10236 5.83509 6.88842 5.50034 6.62447 5.24269C6.88834 4.98493 7.10223 4.65017 7.24898 4.26522C7.39573 3.88027 7.47127 3.45585 7.46954 3.02598C7.46954 1.5257 6.56911 0.301025 5.44952 0.301025H2.16898ZM0.908008 3.02598C0.908008 2.0769 1.47627 1.31692 2.16898 1.31692H3.42949V4.73504H2.16898C1.47627 4.73504 0.908008 3.97446 0.908008 3.02598ZM5.44952 4.73444H4.189V1.31632H5.44952C6.14268 1.31632 6.71049 2.0769 6.71049 3.02598C6.71049 3.97446 6.14268 4.73444 5.44952 4.73444ZM0.908466 7.4594C0.908466 6.51091 1.47673 5.75033 2.16944 5.75033H3.42995V9.16846H2.16898C1.47581 9.16846 0.908008 8.40788 0.908008 7.4594H0.908466ZM4.189 7.4594C4.189 6.51091 4.75726 5.75033 5.44997 5.75033C6.14314 5.75033 6.71094 6.51031 6.71094 7.4594C6.71094 8.40788 6.14314 9.16846 5.44997 9.16846C4.75726 9.16846 4.18946 8.40848 4.18946 7.4594H4.189ZM0.908466 11.8928C0.908466 10.9443 1.47673 10.1843 2.16944 10.1843H3.42995V11.8928C3.42995 12.8419 2.8626 13.6019 2.16944 13.6019C1.47673 13.6019 0.908466 12.8419 0.908466 11.8928Z" fill="url(#paint0_linear_117_237)"/>
<defs>
<linearGradient id="paint0_linear_117_237" x1="3.80925" y1="0.301025" x2="3.80925" y2="14.6178" gradientUnits="userSpaceOnUse">
<stop stop-color="#933B85" stop-opacity="0.53"/>
<stop offset="1" stop-color="#933B8A"/>
</linearGradient>
</defs>
</svg>
