<svg width="10" height="13" viewBox="0 0 10 13" fill="none" xmlns="http://www.w3.org/2000/svg">
<path d="M7.62273 0.974976H1.58115C0.751862 0.974976 0.0795898 1.85148 0.0795898 2.93269V10.5148C0.0795898 11.596 0.751862 12.4725 1.58115 12.4725H7.62273C8.45202 12.4725 9.1243 11.596 9.1243 10.5148V2.93269C9.1243 1.85148 8.45202 0.974976 7.62273 0.974976Z" fill="url(#paint0_linear_117_240)"/>
<path d="M4.83443 3.99934L3.70586 6.42797L4.91329 9.00687C4.92106 9.02492 4.92322 9.04611 4.91937 9.0662C4.91749 9.07476 4.91347 9.07688 4.90728 9.07721L4.90043 9.07707L4.89209 9.07679C4.88757 9.07679 4.88252 9.07707 4.8769 9.07826H4.00635L3.98925 9.0779C3.94233 9.07628 3.90851 9.06753 3.88792 9.02267C3.80737 8.81807 3.72646 8.61372 3.64519 8.4096C3.5725 8.22755 3.49783 8.04685 3.4212 7.86757L3.38735 7.78861C3.29569 7.57622 3.20569 7.36263 3.11735 7.14786H3.11127C3.0297 7.36038 2.94575 7.57135 2.85947 7.78069C2.77245 7.99166 2.68649 8.20134 2.60159 8.4096C2.51664 8.61802 2.42967 8.82503 2.34071 9.03059C2.3264 9.07251 2.30262 9.08126 2.26952 9.08269L2.25574 9.08296H1.42451L1.4209 9.0831L1.40903 9.08448C1.40242 9.08499 1.39847 9.08315 1.3972 9.07016C1.39492 9.05087 1.39816 9.03116 1.40631 9.01479L2.57732 6.50707L1.43663 3.99151C1.42451 3.97051 1.42249 3.95337 1.43055 3.94011C1.43503 3.93335 1.44065 3.92804 1.44697 3.9246C1.45329 3.92116 1.46014 3.91969 1.46697 3.9203H2.32248C2.34113 3.91897 2.35978 3.92302 2.3771 3.93218C2.39158 3.94292 2.40406 3.95779 2.41349 3.97571C2.48631 4.18669 2.56721 4.39766 2.65621 4.60854C2.74452 4.81809 2.83452 5.02642 2.92621 5.23349C3.01649 5.43735 3.10049 5.64584 3.17801 5.85844H3.18409C3.26354 5.64589 3.34545 5.43492 3.42982 5.22561C3.51267 5.01994 3.59764 4.81288 3.68462 4.60458C3.7705 4.39895 3.85444 4.19195 3.93643 3.98364C3.94109 3.9641 3.94943 3.94642 3.9607 3.93218C3.97569 3.92229 3.99252 3.91817 4.00924 3.9203H4.80408C4.81139 3.91792 4.81909 3.91871 4.82603 3.92253C4.83296 3.92635 4.83876 3.93301 4.84255 3.9415C4.84633 3.94998 4.8479 3.95985 4.84702 3.9696C4.84613 3.97935 4.84285 3.98846 4.83765 3.99557L4.83447 3.99944L4.83443 3.99934ZM6.61758 9.1803L6.57575 9.1809C6.29647 9.18644 6.01976 9.11079 5.76572 8.95942C5.52907 8.81662 5.33124 8.58351 5.19841 8.29094C5.06447 8.00092 4.99572 7.6395 4.99225 7.20682L4.99211 7.17158C4.98984 6.80851 5.06101 6.45107 5.19845 6.13528C5.33599 5.82273 5.53652 5.5652 5.7783 5.39061L5.79911 5.37587C6.06197 5.186 6.37952 5.09106 6.7517 5.09106L6.76795 5.09129L6.78653 5.09207L6.80738 5.09327L6.83056 5.09502L6.86949 5.09861L6.91358 5.10322L6.94584 5.10691V3.54847C6.94584 3.51162 6.95799 3.4931 6.98223 3.4931H7.74676C7.7517 3.49218 7.75674 3.49277 7.76148 3.49482C7.76622 3.49688 7.77052 3.50035 7.77406 3.50495C7.77759 3.50956 7.78025 3.51517 7.78183 3.52135C7.7834 3.52753 7.78386 3.5341 7.78315 3.54055V8.21581C7.78315 8.2943 7.78548 8.37888 7.79014 8.46935L7.80145 8.67456L7.80745 8.79327C7.8082 8.80971 7.80512 8.82606 7.79862 8.84018C7.79212 8.8543 7.78251 8.86553 7.77103 8.8724C7.5738 8.97964 7.36837 9.05918 7.15821 9.10968C6.9798 9.15261 6.79898 9.17623 6.61758 9.1803ZM6.94584 8.19996V6.04035C6.91305 6.02877 6.87957 6.02083 6.84575 6.01662C6.80441 6.0112 6.76289 6.00855 6.72135 6.0087C6.57411 6.0068 6.42861 6.05017 6.29664 6.13528C6.16809 6.21859 6.05832 6.34399 5.97809 6.49919C5.898 6.65194 5.85655 6.85139 5.85383 7.09756L5.85369 7.12414C5.85074 7.29657 5.87234 7.46822 5.91739 7.63038C5.95407 7.76107 6.01205 7.87983 6.08733 7.97849C6.15938 8.06924 6.24661 8.13693 6.34214 8.17624C6.44306 8.21885 6.54853 8.24023 6.65461 8.23958C6.71121 8.23958 6.76378 8.23691 6.81236 8.23161C6.85111 8.22781 6.88951 8.21948 6.92711 8.20673L6.94584 8.19996Z" fill="black"/>
<defs>
<linearGradient id="paint0_linear_117_240" x1="4.60194" y1="0.974976" x2="4.60194" y2="12.4725" gradientUnits="userSpaceOnUse">
<stop stop-color="#933B85" stop-opacity="0.53"/>
<stop offset="1" stop-color="#933B8A"/>
</linearGradient>
</defs>
</svg>
