<svg width="9" height="11" viewBox="0 0 9 11" fill="none" xmlns="http://www.w3.org/2000/svg">
<path d="M1.14983 0.468694H8.47029V10.4956H1.14983V0.468694ZM0.816406 10.9643H8.80257V0H0.816406V10.9643ZM6.04734 3.90779C6.04734 3.87044 6.05732 3.85157 6.08727 3.85157H6.6098C6.63632 3.85157 6.64973 3.86562 6.64973 3.90779V7.60473C6.64973 7.64208 6.64317 7.66096 6.6098 7.66096H6.0944C6.06103 7.66096 6.05105 7.63767 6.05105 7.59991V3.90779H6.04763H6.04734ZM6.01083 2.84429C6.01083 2.71754 6.04659 2.59598 6.11025 2.50635C6.1739 2.41672 6.26023 2.36636 6.35025 2.36636C6.44026 2.36636 6.52659 2.41672 6.59025 2.50635C6.6539 2.59598 6.68966 2.71754 6.68966 2.84429C6.69295 2.90905 6.6862 2.97403 6.66988 3.03475C6.65357 3.09546 6.62807 3.15045 6.59516 3.19592C6.56225 3.24138 6.52271 3.27622 6.47929 3.29803C6.43587 3.31984 6.3896 3.3281 6.34369 3.32223C6.2987 3.3262 6.25364 3.31648 6.21156 3.29372C6.16948 3.27097 6.13138 3.23572 6.09985 3.19036C6.06832 3.14501 6.0441 3.09062 6.02884 3.03091C6.01357 2.97119 6.00763 2.90754 6.0114 2.84429H6.01083ZM4.51343 5.44962C4.42016 4.92751 4.19969 3.79574 4.11754 3.24752H4.11098C4.0411 3.79574 3.86484 4.72349 3.72508 5.44962H4.51343ZM3.58846 6.20869L3.32549 7.61437C3.31893 7.65172 3.30894 7.66136 3.27557 7.66136H2.78699C2.75362 7.66136 2.74706 7.6473 2.75362 7.59108L3.69855 2.93225C3.72155 2.80523 3.73277 2.67455 3.73193 2.54348C3.73193 2.51055 3.74191 2.49649 3.75845 2.49649H4.45724C4.48063 2.49649 4.49061 2.50573 4.49717 2.54348L5.55534 7.59911C5.5619 7.63646 5.55534 7.66016 5.52881 7.66016H4.97634C4.94982 7.66016 4.93299 7.65092 4.92643 7.61999L4.65347 6.20949H3.58875L3.58846 6.20869Z" fill="url(#paint0_linear_117_252)"/>
<defs>
<linearGradient id="paint0_linear_117_252" x1="4.80949" y1="0" x2="4.80949" y2="10.9643" gradientUnits="userSpaceOnUse">
<stop stop-color="#933B85" stop-opacity="0.53"/>
<stop offset="1" stop-color="#933B8A"/>
</linearGradient>
</defs>
</svg>
