<svg width="14" height="10" viewBox="0 0 14 10" fill="none" xmlns="http://www.w3.org/2000/svg">
<path d="M9.94744 5.62816C10.6587 5.09557 11.368 4.55865 12.0816 4.03164C12.759 3.53121 13.5559 3.99267 13.7095 4.96642C13.7984 5.52971 13.6055 6.13823 13.2154 6.43461C11.9366 7.40622 10.656 8.37397 9.36893 9.32693C8.97057 9.62186 8.56023 9.56761 8.19721 9.20617C7.82843 8.83923 7.7122 8.33308 7.7987 7.74397C7.89744 7.29552 8.12344 6.9957 8.43166 6.7714C8.94121 6.4006 9.44259 6.01025 9.94744 5.62816Z" fill="url(#paint0_linear_117_243)"/>
<path d="M10.469 5.24135C9.7596 4.70464 9.04838 4.17212 8.34145 3.62997C7.67036 3.11528 7.57848 1.98471 8.14845 1.32435C8.47815 0.942463 8.97879 0.855925 9.3707 1.14817C10.6555 2.10629 11.9387 3.06847 13.2151 4.04517C13.6102 4.34747 13.7793 4.83799 13.7208 5.42861C13.6614 6.02839 13.3834 6.41268 12.9488 6.60965C12.6016 6.72242 12.2894 6.61709 11.9863 6.38122C11.4852 5.99122 10.9753 5.62028 10.469 5.24135Z" fill="url(#paint1_linear_117_243)"/>
<path d="M4.00362 4.86168C3.5484 5.19888 3.09291 5.53546 2.63811 5.8737C2.37214 6.07156 2.10901 6.27617 1.84167 6.47072C1.30291 6.86279 0.662822 6.63299 0.357351 5.9424C0.0658212 5.28342 0.233368 4.42905 0.752219 4.03416C2.02083 3.06874 3.29272 2.11035 4.5692 1.16263C4.96069 0.872035 5.36686 0.908592 5.72888 1.25605C6.11097 1.62279 6.23606 2.13885 6.15025 2.74379C6.09703 2.89023 6.06524 3.06186 5.98551 3.17717C5.85593 3.36478 5.7086 3.54439 5.54459 3.6763C5.03704 4.08435 4.51809 4.46836 4.00362 4.86168Z" fill="url(#paint2_linear_117_243)"/>
<path d="M3.48156 5.23941C3.93319 5.58473 4.3845 5.93082 4.83656 6.27518C5.10095 6.47662 5.3684 6.67138 5.63131 6.87592C6.16114 7.28831 6.32858 8.12587 6.02259 8.81605C5.73058 9.47476 5.07935 9.71282 4.5576 9.32433C3.28201 8.37461 2.00949 7.4178 0.741775 6.45032C0.35298 6.1536 0.174186 5.67671 0.22398 5.09421C0.276519 4.47936 0.55675 4.08013 1.00152 3.87449C1.12534 3.86147 1.25524 3.81149 1.37172 3.84385C1.56113 3.89645 1.75413 3.97293 1.92374 4.09217C2.44855 4.46118 2.96308 4.85511 3.48156 5.23941Z" fill="url(#paint3_linear_117_243)"/>
<defs>
<linearGradient id="paint0_linear_117_243" x1="10.7512" y1="3.82764" x2="10.7512" y2="9.51705" gradientUnits="userSpaceOnUse">
<stop stop-color="#933B85" stop-opacity="0.53"/>
<stop offset="1" stop-color="#933B8A"/>
</linearGradient>
<linearGradient id="paint1_linear_117_243" x1="10.7528" y1="0.973938" x2="10.7528" y2="6.65503" gradientUnits="userSpaceOnUse">
<stop stop-color="#933B85" stop-opacity="0.53"/>
<stop offset="1" stop-color="#933B8A"/>
</linearGradient>
<linearGradient id="paint2_linear_117_243" x1="3.19545" y1="0.96759" x2="3.19545" y2="6.6615" gradientUnits="userSpaceOnUse">
<stop stop-color="#933B85" stop-opacity="0.53"/>
<stop offset="1" stop-color="#933B8A"/>
</linearGradient>
<linearGradient id="paint3_linear_117_243" x1="3.19536" y1="3.83313" x2="3.19536" y2="9.51165" gradientUnits="userSpaceOnUse">
<stop stop-color="#933B85" stop-opacity="0.53"/>
<stop offset="1" stop-color="#933B8A"/>
</linearGradient>
</defs>
</svg>
