<svg width="10" height="12" viewBox="0 0 10 12" fill="none" xmlns="http://www.w3.org/2000/svg">
<path fill-rule="evenodd" clip-rule="evenodd" d="M0.937988 1.69546C0.937988 1.44906 1.01165 1.21276 1.14276 1.03853C1.27387 0.8643 1.45169 0.76642 1.63711 0.76642H8.60628C8.69817 0.76622 8.78918 0.790107 8.87411 0.836712C8.95905 0.883318 9.03623 0.951727 9.10124 1.03802C9.16625 1.12432 9.21781 1.22681 9.25297 1.33962C9.28814 1.45243 9.30621 1.57335 9.30616 1.69546V10.9565C9.30626 11.0786 9.28824 11.1996 9.25313 11.3125C9.21801 11.4253 9.1665 11.5279 9.10153 11.6143C9.03656 11.7007 8.95941 11.7692 8.87449 11.8159C8.78958 11.8626 8.69857 11.8866 8.60666 11.8866H1.63711C1.54527 11.8866 1.45433 11.8625 1.36948 11.8158C1.28463 11.7691 1.20755 11.7006 1.14262 11.6143C1.0777 11.5279 1.02621 11.4255 0.991097 11.3127C0.955985 11.1999 0.937938 11.0791 0.937988 10.957V1.69546ZM4.25026 5.00622H5.38339V5.76239C5.54695 5.3277 5.96536 4.93647 6.59411 4.93647C7.79951 4.93647 8.08517 5.80233 8.08517 7.39099V10.3338H6.86532V7.7529C6.86532 6.84812 6.70176 6.33761 6.28639 6.33761C5.71013 6.33761 5.4705 6.88805 5.4705 7.7529V10.3338H4.25026V5.00622ZM2.15822 10.2645H3.37845V4.93647H2.15822V10.264V10.2645ZM3.55304 3.1987C3.55534 3.33753 3.53675 3.47558 3.49836 3.60474C3.45997 3.7339 3.40255 3.85157 3.32947 3.95084C3.2564 4.05011 3.16913 4.12898 3.07281 4.18283C2.97648 4.23668 2.87303 4.26442 2.76853 4.26442C2.66402 4.26442 2.56057 4.23668 2.46425 4.18283C2.36792 4.12898 2.28066 4.05011 2.20758 3.95084C2.1345 3.85157 2.07708 3.7339 2.03869 3.60474C2.0003 3.47558 1.98171 3.33753 1.98401 3.1987C1.98853 2.92618 2.07316 2.66685 2.2198 2.47623C2.36643 2.28562 2.5634 2.17889 2.76853 2.17889C2.97365 2.17889 3.17062 2.28562 3.31726 2.47623C3.46389 2.66685 3.54853 2.92618 3.55304 3.1987Z" fill="url(#paint0_linear_117_254)"/>
<defs>
<linearGradient id="paint0_linear_117_254" x1="5.12208" y1="0.766418" x2="5.12208" y2="11.8866" gradientUnits="userSpaceOnUse">
<stop stop-color="#933B85" stop-opacity="0.53"/>
<stop offset="1" stop-color="#933B8A"/>
</linearGradient>
</defs>
</svg>
