<svg width="11" height="17" viewBox="0 0 11 17" fill="none" xmlns="http://www.w3.org/2000/svg">
<path d="M10.811 8.62376C10.811 7.46871 9.92189 6.37397 8.55861 5.69547C8.87342 3.43551 8.73365 1.63684 8.11743 1.06078C7.96811 0.924729 7.79911 0.856248 7.62802 0.862458V1.65428C7.72849 1.65428 7.80931 1.68697 7.87719 1.74726C8.17414 2.02476 8.30319 3.07956 8.20271 4.43728C8.1786 4.77144 8.13931 5.12304 8.09108 5.4819C7.63455 5.30293 7.17121 5.17358 6.70413 5.0947C6.42587 4.47018 6.12229 3.87656 5.79542 3.31783C6.50765 2.24124 7.17612 1.65137 7.6307 1.65137V0.858826C7.02965 0.858826 6.2433 1.55548 5.44801 2.76355C4.65317 1.56347 3.86636 0.873354 3.26577 0.873354V1.66518C3.71811 1.66518 4.38882 2.25214 5.10105 3.32146C4.79517 3.8445 4.48929 4.43728 4.19859 5.0947C3.73054 5.1727 3.26637 5.30329 2.8094 5.48553C2.76111 5.1454 2.72311 4.80163 2.69554 4.45544C2.59283 3.09699 2.71965 2.0422 3.01481 1.76179C3.08001 1.69787 3.1653 1.66881 3.26577 1.66881V0.876987C3.08269 0.876987 2.91613 0.940914 2.77234 1.07531C2.15835 1.65137 2.02081 3.44568 2.33741 5.6991C0.97859 6.38196 0.0939941 7.47235 0.0939941 8.62376C0.0939941 9.7788 0.983055 10.8735 2.34634 11.5513C2.03153 13.812 2.1713 15.6107 2.78752 16.186C2.92952 16.3211 3.09564 16.3851 3.27872 16.3851C3.87976 16.3851 4.66612 15.6884 5.46141 14.4803C6.25625 15.6811 7.0426 16.3705 7.64365 16.3705C7.81606 16.3765 7.98634 16.3078 8.13707 16.1715C8.75107 15.5961 8.8886 13.8018 8.572 11.5484C9.92636 10.8699 10.811 9.77517 10.811 8.62376ZM7.96649 6.25338C7.88165 6.72837 7.7833 7.1967 7.67178 7.65686C7.48922 7.07917 7.28876 6.5169 7.07118 5.97225C7.38153 6.04707 7.68071 6.13933 7.96694 6.25338H7.96649ZM6.96625 10.0381C6.80269 10.5027 6.62704 10.9557 6.43977 11.3959C5.78437 11.4898 5.12518 11.491 4.46964 11.3995C4.09363 10.5257 3.76479 9.60065 3.48681 8.63465C3.76437 7.66638 4.09181 6.73807 4.46562 5.85965C5.12087 5.76548 5.77991 5.76402 6.43531 5.85529C6.6166 6.27808 6.79388 6.72992 6.96401 7.20647C7.13013 7.67139 7.28106 8.14358 7.41859 8.62012C7.27953 9.10245 7.12863 9.5755 6.96625 10.0381ZM7.67178 9.57612C7.78966 10.0519 7.89058 10.5285 7.97319 10.9905C7.68741 11.1046 7.38555 11.2004 7.07341 11.2745C7.29009 10.7249 7.4898 10.1581 7.67178 9.57612ZM5.45694 13.3681C5.25376 13.0267 5.05059 12.6468 4.84965 12.2305C5.04612 12.2451 5.24707 12.256 5.45024 12.256C5.65565 12.256 5.85883 12.2487 6.05754 12.2305C5.86106 12.6468 5.65788 13.0267 5.45694 13.3681ZM3.83153 11.2745C3.53045 11.2036 3.23155 11.11 2.93577 10.9941C3.0166 10.5357 3.11707 10.0628 3.23049 9.59065C3.32025 9.87396 3.41447 10.1587 3.51717 10.4435C3.61987 10.7275 3.72436 11.005 3.83153 11.2745ZM5.44578 3.87937C5.64895 4.2208 5.85213 4.60072 6.05307 5.01698C5.85659 5.00245 5.65565 4.99155 5.45247 4.99155C5.24707 4.99155 5.04389 4.99881 4.84518 5.01698C5.04166 4.60072 5.24483 4.2208 5.44578 3.87937ZM3.8293 5.97297C3.61267 6.52139 3.41297 7.08702 3.23094 7.66776C3.11627 7.20462 3.01568 6.73259 2.92952 6.25338C3.21531 6.14296 3.51717 6.04707 3.8293 5.97297ZM1.85247 10.4217C1.07906 9.88558 0.578937 9.18166 0.578937 8.62376C0.578937 8.06585 1.07906 7.3583 1.85247 6.82581C2.04002 6.69433 2.24542 6.57664 2.45753 6.46695C2.58212 7.16288 2.746 7.88787 2.94872 8.63102C2.75732 9.32999 2.59545 10.0494 2.46423 10.7842C2.25679 10.6797 2.05262 10.5587 1.85247 10.4217ZM3.02776 15.4995C2.73081 15.2235 2.60176 14.1672 2.70223 12.8102C2.72635 12.4761 2.76564 12.1238 2.81387 11.7649C3.24165 11.9356 3.70918 12.0671 4.20082 12.1528C4.4791 12.7773 4.78267 13.3709 5.10953 13.9297C4.3973 15.0063 3.72883 15.5961 3.27425 15.5961C3.18849 15.5977 3.10382 15.5647 3.02776 15.5002V15.4995ZM8.20941 12.7921C8.31212 14.1498 8.1853 15.2053 7.89014 15.4857C7.82494 15.5496 7.73965 15.578 7.63918 15.578C7.18684 15.578 6.51613 14.9917 5.8039 13.9217C6.1294 13.3653 6.43093 12.773 6.70636 12.1492C7.17441 12.0712 7.63858 11.9406 8.09554 11.7584C8.146 12.1172 8.18485 12.4615 8.20941 12.7921ZM9.05025 10.4217C8.8627 10.5532 8.65729 10.6709 8.44519 10.7806C8.31166 10.042 8.14755 9.31899 7.95399 8.61649C8.15493 7.8777 8.31614 7.15634 8.43849 6.46332C8.64659 6.56816 8.85149 6.68913 9.05248 6.82581C9.82589 7.36193 10.326 8.06585 10.326 8.62376C10.3238 9.18166 9.82365 9.88922 9.05025 10.4217Z" fill="url(#paint0_linear_117_231)"/>
<path d="M5.45012 10.2476C5.71493 10.2476 5.9689 10.0765 6.15614 9.77185C6.34339 9.46724 6.44859 9.05408 6.44859 8.62328C6.44859 8.19249 6.34339 7.77933 6.15614 7.47472C5.9689 7.1701 5.71493 6.99896 5.45012 6.99896C5.18531 6.99896 4.93135 7.1701 4.7441 7.47472C4.55686 7.77933 4.45166 8.19249 4.45166 8.62328C4.45166 9.05408 4.55686 9.46724 4.7441 9.77185C4.93135 10.0765 5.18531 10.2476 5.45012 10.2476Z" fill="url(#paint1_linear_117_231)"/>
<defs>
<linearGradient id="paint0_linear_117_231" x1="5.45247" y1="0.858826" x2="5.45247" y2="16.3851" gradientUnits="userSpaceOnUse">
<stop stop-color="#933B85" stop-opacity="0.53"/>
<stop offset="1" stop-color="#933B8A"/>
</linearGradient>
<linearGradient id="paint1_linear_117_231" x1="5.45012" y1="6.99896" x2="5.45012" y2="10.2476" gradientUnits="userSpaceOnUse">
<stop stop-color="#933B85" stop-opacity="0.53"/>
<stop offset="1" stop-color="#933B8A"/>
</linearGradient>
</defs>
</svg>
