<svg width="270" height="243" viewBox="0 0 270 243" fill="none" xmlns="http://www.w3.org/2000/svg">
<path d="M268.907 121.267C268.907 187.772 208.898 241.774 134.759 241.774C60.6197 241.774 0.611328 187.772 0.611328 121.267C0.611328 54.7618 60.6197 0.760132 134.759 0.760132C208.898 0.760132 268.907 54.7618 268.907 121.267Z" stroke="url(#paint0_linear_117_228)"/>
<path d="M263.627 152.509C263.627 172.173 249.284 190.08 225.864 203.1C202.461 216.11 170.096 224.173 134.319 224.173C98.5425 224.173 66.1775 216.11 42.7744 203.1C19.3544 190.08 5.01172 172.173 5.01172 152.509C5.01172 132.845 19.3544 114.938 42.7744 101.918C66.1775 88.9076 98.5425 80.8447 134.319 80.8447C170.096 80.8447 202.461 88.9076 225.864 101.918C249.284 114.938 263.627 132.845 263.627 152.509Z" stroke="url(#paint1_linear_117_228)"/>
<defs>
<linearGradient id="paint0_linear_117_228" x1="134.759" y1="0.260132" x2="134.759" y2="242.274" gradientUnits="userSpaceOnUse">
<stop offset="0.197917" stop-opacity="0"/>
<stop offset="1" stop-color="#763CAC"/>
</linearGradient>
<linearGradient id="paint1_linear_117_228" x1="134.319" y1="80.3447" x2="134.319" y2="224.673" gradientUnits="userSpaceOnUse">
<stop offset="0.197917" stop-opacity="0"/>
<stop offset="1" stop-color="#763CAC"/>
</linearGradient>
</defs>
</svg>
