<svg width="10" height="17" viewBox="0 0 10 17" fill="none" xmlns="http://www.w3.org/2000/svg">
<path d="M4.99776 17C4.84781 17 4.69561 16.9393 4.56356 16.8246L3.18263 15.5933C2.97672 15.4179 3.07744 15.3572 3.14458 15.3234C3.41987 15.1784 3.47583 15.148 3.76902 14.895C3.80036 14.868 3.84064 14.8782 3.87198 14.9085L4.93286 15.8564C4.9709 15.8902 5.02462 15.8902 5.06043 15.8564L9.19427 12.2604C9.23232 12.2267 9.25694 12.1592 9.25694 12.0918V4.89979C9.25694 4.82895 9.23232 4.76486 9.19203 4.72775L5.06043 1.13513C5.02238 1.1014 4.9709 1.1014 4.93286 1.13513L0.803491 4.73112C0.763205 4.76486 0.738586 4.83232 0.738586 4.90316V12.0918C0.738586 12.1592 0.763205 12.2267 0.803491 12.2571L1.93599 13.2421C2.55148 13.7042 2.92748 13.1611 2.92748 12.6113V5.51374C2.92748 5.41254 2.9812 5.33495 3.04834 5.33495H3.57207C3.63697 5.33495 3.69293 5.41254 3.69293 5.51374V12.6146C3.69293 13.8493 3.2453 14.5577 2.46867 14.5577C2.22919 14.5577 2.04118 14.5577 1.51746 14.1664L0.434199 13.2252C0.165622 12.9925 0 12.5573 0 12.0884V4.89979C0 4.43427 0.165622 3.99573 0.434199 3.76297L4.56356 0.166981C4.82543 -0.0556603 5.17234 -0.0556603 5.43196 0.166981L9.5658 3.76635C9.83438 3.99911 10 4.43427 10 4.90316V12.0918C10 12.5573 9.83438 12.9925 9.5658 13.2286L5.43196 16.8246C5.29991 16.9393 5.14996 17 4.99776 17ZM8.33483 9.91259C8.33483 8.56662 7.73053 8.20905 6.4615 7.95605C5.17681 7.69967 5.047 7.56811 5.047 7.11608C5.047 6.74164 5.15667 6.24239 6.10788 6.24239C6.95613 6.24239 7.26947 6.519 7.39928 7.38258C7.41047 7.46354 7.45971 7.52426 7.51567 7.52426H8.05282C8.08639 7.52426 8.11773 7.50402 8.14011 7.46691C8.16249 7.4298 8.17368 7.3792 8.17144 7.3286C8.08863 5.84096 7.43286 5.14942 6.10788 5.14942C4.92838 5.14942 4.2256 5.8983 4.2256 7.15656C4.2256 8.5194 4.92614 8.89721 6.0564 9.06588C7.41047 9.26491 7.51567 9.56514 7.51567 9.96657C7.51567 10.6615 7.14414 10.9583 6.2735 10.9583C5.17905 10.9583 4.93957 10.5434 4.859 9.72368C4.85005 9.63598 4.80081 9.57188 4.74038 9.57188H4.20546C4.13832 9.57188 4.08684 9.65284 4.08684 9.75067C4.08684 10.7998 4.46509 12.0513 6.27574 12.0513C7.58281 12.0479 8.33483 11.2687 8.33483 9.91259Z" fill="url(#paint0_linear_117_236)"/>
<defs>
<linearGradient id="paint0_linear_117_236" x1="5" y1="0" x2="5" y2="17" gradientUnits="userSpaceOnUse">
<stop stop-color="#933B85" stop-opacity="0.53"/>
<stop offset="1" stop-color="#933B8A"/>
</linearGradient>
</defs>
</svg>
