<svg width="8" height="13" viewBox="0 0 8 13" fill="none" xmlns="http://www.w3.org/2000/svg">
<path fill-rule="evenodd" clip-rule="evenodd" d="M4 0C1.79067 0 0 2.91038 0 6.5C0 10.0896 1.79067 13 4 13C6.209 13 8 10.0896 8 6.5C8 2.91038 6.209 0 4 0ZM4.04667 10.3014C2.75733 10.3014 1.71333 8.60058 1.71333 6.5C1.71333 4.39942 2.75733 2.69858 4.04667 2.69858C4.67667 2.69858 5.20333 3.07613 5.60733 3.68929L4.94933 4.76071V4.75854C4.70433 4.37829 4.39367 4.18329 4.04667 4.18329C3.27667 4.18329 2.651 5.24279 2.651 6.49783C2.651 7.75179 3.27667 8.81454 4.04667 8.81454C4.74533 8.81454 5.22067 8.16346 5.31867 7.26971H4.04667V5.78717H6.24167C6.271 6.04175 6.28667 6.30717 6.28667 6.58558C6.28667 8.75767 5.39433 10.3014 4.04667 10.3014Z" fill="url(#paint0_linear_117_248)"/>
<defs>
<linearGradient id="paint0_linear_117_248" x1="4" y1="0" x2="4" y2="13" gradientUnits="userSpaceOnUse">
<stop stop-color="#933B85" stop-opacity="0.53"/>
<stop offset="1" stop-color="#933B8A"/>
</linearGradient>
</defs>
</svg>
