<svg width="13" height="13" viewBox="0 0 13 13" fill="none" xmlns="http://www.w3.org/2000/svg">
<path d="M12.8848 5.32863C12.9621 5.76489 13.0006 6.20691 13 6.64971C13 8.62727 12.2789 10.2993 11.024 11.4311H11.0256C9.9282 12.4248 8.41966 13 6.63096 13C4.87232 13 3.18571 12.3152 1.94216 11.0963C0.698617 9.87731 0 8.22406 0 6.50021C0 4.77636 0.698617 3.12312 1.94216 1.90417C3.18571 0.685226 4.87232 0.000428894 6.63096 0.000428894C8.27704 -0.0184679 9.86674 0.587711 11.0671 1.692L9.17393 3.54769C8.4896 2.90825 7.57628 2.55809 6.63096 2.57272C4.90111 2.57272 3.43152 3.71668 2.90767 5.25713C2.62993 6.06433 2.62993 6.93854 2.90767 7.74574H2.91016C3.43649 9.28375 4.90359 10.4277 6.63344 10.4277C7.52697 10.4277 8.2945 10.2035 8.88963 9.80698H8.88714C9.2327 9.58258 9.5283 9.29187 9.75609 8.95241C9.98388 8.61294 10.1391 8.23176 10.2125 7.83186H6.63096V5.32944H12.8848V5.32863Z" fill="white"/>
</svg>
