<svg width="9" height="11" viewBox="0 0 9 11" fill="none" xmlns="http://www.w3.org/2000/svg">
<path d="M8.03571 0H0.964286C0.43192 0 0 0.527902 0 1.17857V9.82143C0 10.4721 0.43192 11 0.964286 11H8.03571C8.56808 11 9 10.4721 9 9.82143V1.17857C9 0.527902 8.56808 0 8.03571 0ZM4.89777 8.57902C4.89777 9.64955 4.38348 10.1382 3.63415 10.1382C2.95714 10.1382 2.5654 9.71094 2.36451 9.19286L3.05357 8.6846C3.18616 8.97188 3.3067 9.21496 3.59799 9.21496C3.87522 9.21496 4.05201 9.08237 4.05201 8.56429V5.05067H4.89777V8.57902ZM6.89866 10.1382C6.11317 10.1382 5.60491 9.68147 5.35781 9.08237L6.04688 8.59621C6.22768 8.95714 6.46473 9.22478 6.88058 9.22478C7.23013 9.22478 7.45513 9.01116 7.45513 8.71406C7.45513 8.36049 7.22612 8.23527 6.83839 8.02656L6.62746 7.91607C6.01674 7.59933 5.61295 7.19911 5.61295 6.35692C5.61295 5.58103 6.0971 4.99174 6.85045 4.99174C7.38884 4.99174 7.77455 5.22009 8.05179 5.8192L7.39286 6.33482C7.24821 6.01808 7.09152 5.89286 6.84844 5.89286C6.60134 5.89286 6.44464 6.08437 6.44464 6.33482C6.44464 6.6442 6.60134 6.76942 6.96496 6.96339L7.17589 7.07388C7.89509 7.44955 8.29888 7.83504 8.29888 8.69933C8.29888 9.62745 7.70022 10.1382 6.89866 10.1382Z" fill="url(#paint0_linear_117_235)"/>
<defs>
<linearGradient id="paint0_linear_117_235" x1="4.5" y1="0" x2="4.5" y2="11" gradientUnits="userSpaceOnUse">
<stop stop-color="#933B85" stop-opacity="0.53"/>
<stop offset="1" stop-color="#933B8A"/>
</linearGradient>
</defs>
</svg>
