<svg width="69" height="43" viewBox="0 0 69 43" fill="none" xmlns="http://www.w3.org/2000/svg">
<path fill-rule="evenodd" clip-rule="evenodd" d="M0.258386 42.033C0.258386 42.033 0.258311 42.0332 0.373455 42.0977C0.43628 42.2138 0.436362 42.2138 0.436362 42.2138L0.442826 42.2103L0.462615 42.1996L0.540546 42.158C0.60909 42.1215 0.7102 42.068 0.840224 42.0001C1.10028 41.8643 1.47595 41.6707 1.93802 41.4402C2.86228 40.979 4.13156 40.3702 5.51224 39.779C6.89339 39.1875 8.38342 38.6149 9.74971 38.2251C11.121 37.834 12.3491 37.6327 13.2148 37.768L13.2556 37.5072C12.3293 37.3624 11.0536 37.5786 9.67729 37.9712C8.29598 38.3653 6.79457 38.9426 5.40831 39.5363C4.02156 40.1301 2.74744 40.7413 1.82015 41.2039C1.35644 41.4353 0.979295 41.6296 0.71798 41.7661C0.711994 41.7692 0.706069 41.7723 0.700204 41.7754C0.739867 41.7018 0.784502 41.6186 0.833586 41.5263C1.04854 41.1224 1.34888 40.5455 1.69069 39.8535C2.37406 38.47 3.22433 36.624 3.88924 34.7782C4.55251 32.9369 5.03788 31.0786 4.97758 29.677C4.94738 28.9752 4.77979 28.37 4.41103 27.9408C4.03815 27.5068 3.47732 27.2729 2.7071 27.2804L2.70966 27.5444C3.42219 27.5375 3.90045 27.7517 4.21077 28.1129C4.52519 28.4788 4.68488 29.016 4.7138 29.6883C4.77173 31.0348 4.30268 32.8514 3.64085 34.6887C2.98065 36.5214 2.13513 38.3575 1.45398 39.7366C1.11353 40.4258 0.814434 41.0003 0.60051 41.4023C0.493554 41.6034 0.407904 41.7612 0.349041 41.8688C0.319609 41.9226 0.296876 41.9637 0.281526 41.9914L0.264124 42.0228L0.258386 42.033ZM0.373455 42.0977L0.436362 42.2138L0.0354004 42.4307L0.258386 42.033L0.373455 42.0977Z" fill="white"></path>
<path fill-rule="evenodd" clip-rule="evenodd" d="M34.0465 10.1013C22.7083 16.2123 12.5896 24.7989 6.47245 34.7005L6.69706 34.8393C12.7838 24.9869 22.8628 16.4289 34.1717 10.3337C45.4807 4.23853 58.0075 0.612648 68.9815 0.612648V0.348633C57.9543 0.348632 45.3846 3.9904 34.0465 10.1013Z" fill="white"></path>
</svg>
