<svg width="249" height="288" viewBox="0 0 249 288" fill="none" xmlns="http://www.w3.org/2000/svg">
<path d="M248.086 1.04993C209.657 42.8523 134.384 150.218 140.72 245.264" stroke="url('#paint0_linear_130_22')"></path>
<path d="M193.963 16.0107C155.534 57.8131 126.463 158.579 132.799 253.624" stroke="url('#paint1_linear_130_22')"></path>
<path d="M148.64 14.6907C131.919 72.774 118.279 223.703 118.279 271.225" stroke="url('#paint2_linear_130_22')"></path>
<path d="M1.23172 9.4104C39.6606 51.2128 110.974 178.82 104.638 273.866" stroke="url('#paint3_linear_130_22')"></path>
<path d="M55.355 9.4104C93.7838 51.2128 118.895 187.181 112.558 282.226" stroke="url('#paint4_linear_130_22')"></path>
<path d="M98.4774 12.0505C115.421 75.7064 116.958 235.424 116.958 287.506" stroke="url('#paint5_linear_130_22')"></path>
<defs>
<linearGradient id="paint0_linear_130_22" x1="194.215" y1="1.04993" x2="194.215" y2="245.264" gradientUnits="userSpaceOnUse">
<stop stop-color="#3D1768"></stop>
<stop offset="1" stop-color="#3D1768" stop-opacity="0"></stop>
</linearGradient>
<linearGradient id="paint1_linear_130_22" x1="162.946" y1="16.0107" x2="162.946" y2="253.624" gradientUnits="userSpaceOnUse">
<stop stop-color="#3D1768"></stop>
<stop offset="1" stop-color="#3D1768" stop-opacity="0"></stop>
</linearGradient>
<linearGradient id="paint2_linear_130_22" x1="126.419" y1="29.6515" x2="126.419" y2="268.145" gradientUnits="userSpaceOnUse">
<stop stop-color="#3D1768"></stop>
<stop offset="1" stop-color="#3D1768" stop-opacity="0"></stop>
</linearGradient>
<linearGradient id="paint3_linear_130_22" x1="57.3368" y1="31.4117" x2="57.3368" y2="273.866" gradientUnits="userSpaceOnUse">
<stop stop-color="#3D1768"></stop>
<stop offset="1" stop-color="#3D1768" stop-opacity="0"></stop>
</linearGradient>
<linearGradient id="paint4_linear_130_22" x1="87.4086" y1="29.6516" x2="87.4086" y2="282.226" gradientUnits="userSpaceOnUse">
<stop stop-color="#3D1768"></stop>
<stop offset="1" stop-color="#3D1768" stop-opacity="0"></stop>
</linearGradient>
<linearGradient id="paint5_linear_130_22" x1="118.719" y1="34.9319" x2="118.719" y2="296.307" gradientUnits="userSpaceOnUse">
<stop stop-color="#3D1768"></stop>
<stop offset="1" stop-color="#3D1768" stop-opacity="0"></stop>
</linearGradient>
</defs>
</svg>
